<svg xmlns="http://www.w3.org/2000/svg" width="162" height="115" viewBox="0 0 162 115">
  <defs>
    <linearGradient id="group-a" x1="71.913%" x2="51.367%" y1="-18.443%" y2="95.603%">
      <stop offset="0%" stop-opacity=".2"/>
      <stop offset="100%" stop-opacity="0"/>
    </linearGradient>
    <linearGradient id="group-b" x1="55.478%" x2="50.342%" y1="-18.443%" y2="95.603%">
      <stop offset="0%" stop-opacity=".2"/>
      <stop offset="100%" stop-opacity="0"/>
    </linearGradient>
  </defs>
  <g fill="none" fill-rule="evenodd">
    <g transform="translate(0 84)">
      <path fill="#9D8B73" d="M8.296 24.7297333C11.356 24.7297333 13.736 23.5937556 15.436 21.3218L15.436 21.3218 13.124 19.4948667C12.5346667 20.2443778 11.8886667 20.8475 11.186 21.3042333 10.4833333 21.7609667 9.656 21.9893333 8.704 21.9893333 8.00133333 21.9893333 7.32133333 21.8722222 6.664 21.638 6.00666667 21.4037778 5.42866667 21.0758667 4.93 20.6542667 4.43133333 20.2326667 4.029 19.7232333 3.723 19.1259667 3.417 18.5287 3.264 17.8670222 3.264 17.1409333L3.264 17.1409333 16.184 17.1409333 16.184 16.0166667C16.184 14.9392444 16.0423333 13.8793889 15.759 12.8371 15.4756667 11.7948111 15.0166667 10.8579222 14.382 10.0264333 13.7473333 9.19494444 12.937 8.52155556 11.951 8.00626667 10.965 7.49097778 9.758 7.23333333 8.33 7.23333333 7.12866667 7.23333333 6.018 7.45584444 4.998 7.90086667 3.978 8.34588889 3.09966667 8.96072222 2.363 9.74536667 1.62633333 10.5300111 1.04833333 11.4551889.629 12.5209.209666667 13.5866111 0 14.7401556 0 15.9815333 0 17.2229111.192666667 18.3764556.578 19.4421667.963333333 20.5078778 1.513 21.4330556 2.227 22.2177 2.941 23.0023444 3.81366667 23.6171778 4.845 24.0622 5.87633333 24.5072222 7.02666667 24.7297333 8.296 24.7297333zM12.92 14.6113333L3.264 14.6113333C3.264 14.0492 3.383 13.4812111 3.621 12.9073667 3.859 12.3335222 4.19333333 11.8123778 4.624 11.3439333 5.05466667 10.8754889 5.58166667 10.4948778 6.205 10.2021 6.82833333 9.90932222 7.514 9.76293333 8.262 9.76293333 9.03266667 9.76293333 9.707 9.8859 10.285 10.1318333 10.863 10.3777667 11.3446667 10.7173889 11.73 11.1507 12.1153333 11.5840111 12.4043333 12.0934444 12.597 12.679 12.7896667 13.2645556 12.8973333 13.9086667 12.92 14.6113333L12.92 14.6113333zM28.101 24.3081333L34.425 7.65493333 31.161 7.65493333 26.537 20.4083333 21.709 7.65493333 18.173 7.65493333 24.735 24.3081333 28.101 24.3081333zM44.71 24.7297333C47.77 24.7297333 50.15 23.5937556 51.85 21.3218L51.85 21.3218 49.538 19.4948667C48.9486667 20.2443778 48.3026667 20.8475 47.6 21.3042333 46.8973334 21.7609667 46.07 21.9893333 45.118 21.9893333 44.4153334 21.9893333 43.7353334 21.8722222 43.078 21.638 42.4206667 21.4037778 41.8426667 21.0758667 41.344 20.6542667 40.8453334 20.2326667 40.443 19.7232333 40.137 19.1259667 39.831 18.5287 39.678 17.8670222 39.678 17.1409333L39.678 17.1409333 52.598 17.1409333 52.598 16.0166667C52.598 14.9392444 52.4563334 13.8793889 52.173 12.8371 51.8896667 11.7948111 51.4306667 10.8579222 50.796 10.0264333 50.1613334 9.19494444 49.351 8.52155556 48.365 8.00626667 47.379 7.49097778 46.172 7.23333333 44.744 7.23333333 43.5426667 7.23333333 42.432 7.45584444 41.412 7.90086667 40.392 8.34588889 39.5136667 8.96072222 38.777 9.74536667 38.0403334 10.5300111 37.4623334 11.4551889 37.043 12.5209 36.6236667 13.5866111 36.414 14.7401556 36.414 15.9815333 36.414 17.2229111 36.6066667 18.3764556 36.992 19.4421667 37.3773334 20.5078778 37.927 21.4330556 38.641 22.2177 39.355 23.0023444 40.2276667 23.6171778 41.259 24.0622 42.2903334 24.5072222 43.4406667 24.7297333 44.71 24.7297333zM49.334 14.6113333L39.678 14.6113333C39.678 14.0492 39.797 13.4812111 40.035 12.9073667 40.273 12.3335222 40.6073334 11.8123778 41.038 11.3439333 41.4686667 10.8754889 41.9956667 10.4948778 42.619 10.2021 43.2423334 9.90932222 43.928 9.76293333 44.676 9.76293333 45.4466667 9.76293333 46.121 9.8859 46.699 10.1318333 47.277 10.3777667 47.7586667 10.7173889 48.144 11.1507 48.5293334 11.5840111 48.8183334 12.0934444 49.011 12.679 49.2036667 13.2645556 49.3113334 13.9086667 49.334 14.6113333L49.334 14.6113333zM59.585 24.3081333L59.585 15.9464C59.585 14.1194667 59.9816667 12.7726889 60.775 11.9060667 61.5683334 11.0394444 62.713 10.6061333 64.209 10.6061333 64.4583334 10.6061333 64.7076667 10.6295556 64.957 10.6764 65.2063334 10.7232444 65.4556667 10.7818 65.705 10.8520667L65.705 10.8520667 65.841 7.44413333C65.433 7.3036 64.9796667 7.23333333 64.481 7.23333333 63.9823334 7.23333333 63.4836667 7.30945556 62.985 7.4617 62.4863334 7.61394444 62.0273334 7.81888889 61.608 8.07653333 61.1886667 8.33417778 60.809 8.64452222 60.469 9.00756667 60.129 9.37061111 59.857 9.77464444 59.653 10.2196667L59.653 10.2196667 59.585 10.2196667 59.585 7.65493333 56.525 7.65493333 56.525 24.3081333 59.585 24.3081333zM82.892 7.65675781L76.024 25.8250667C75.752 26.5511556 75.4686667 27.2128333 75.174 27.8101 74.8793334 28.4073667 74.528 28.9168 74.12 29.3384 73.712 29.76 73.219 30.0879111 72.641 30.3221333 72.063 30.5563556 71.3546667 30.6734667 70.516 30.6734667 70.0626667 30.6734667 69.6036667 30.6441889 69.139 30.5856333 68.6743334 30.5270778 68.2266667 30.4041111 67.796 30.2167333L67.796 30.2167333 68.17 27.3358C68.782 27.5934444 69.394 27.7222667 70.006 27.7222667 70.482 27.7222667 70.8843334 27.6578556 71.213 27.5290333 71.5416667 27.4002111 71.825 27.2128333 72.063 26.9669 72.301 26.7209667 72.4993334 26.4340444 72.658 26.1061333 72.8166667 25.7782222 72.9753334 25.4034667 73.134 24.9818667L73.134 24.9818667 74.12 22.3468667 72.4455 18.1572167 68.249 7.65675781 71.721 7.65675781 75.752 18.5876 75.82 18.5876 79.651 7.65675781 82.892 7.65675781zM92.9590001 30.6734667C94.2736667 30.6734667 95.4750001 30.4626667 96.5630001 30.0410667 97.6510001 29.6194667 98.5803334 29.0280556 99.3510001 28.2668333 100.121667 27.5056111 100.716667 26.6038556 101.136 25.5615667 101.555333 24.5192778 101.765 23.3657333 101.765 22.1009333L101.765 7.65493333 98.7050001 7.65493333 98.7050001 10.044 98.6370001 10.044C98.0476667 9.15395556 97.2373334 8.463 96.2060001 7.97113333 95.1746667 7.47926667 94.1150001 7.23333333 93.0270001 7.23333333 91.7803334 7.23333333 90.6526667 7.45584444 89.6440001 7.90086667 88.6353334 8.34588889 87.7740001 8.96657778 87.0600001 9.76293333 86.3460001 10.5592889 85.7963334 11.4903222 85.4110001 12.5560333 85.0256667 13.6217444 84.8330001 14.7635778 84.8330001 15.9815333 84.8330001 17.1994889 85.0370001 18.3296111 85.4450001 19.3719 85.8530001 20.4141889 86.4196667 21.3159444 87.1450001 22.0771667 87.8703334 22.8383889 88.7373334 23.4356556 89.7460001 23.8689667 90.7546667 24.3022778 91.8483334 24.5189333 93.0270001 24.5189333 94.1376667 24.5189333 95.1973334 24.2788556 96.2060001 23.7987 97.2146667 23.3185444 98.0136667 22.5748889 98.6030001 21.5677333L98.7050001 21.5677333 98.7050001 21.9604C98.7050001 22.6630667 98.6143334 23.3598778 98.4330001 24.0508333 98.2516667 24.7417889 97.9400001 25.3566222 97.4980001 25.8953333 97.0560001 26.4340444 96.4610001 26.8732111 95.7130001 27.2128333 94.9650001 27.5524556 94.0243334 27.7222667 92.8910001 27.7222667 91.7123334 27.7222667 90.6583334 27.4939 89.7290001 27.0371667 88.7996667 26.5804333 87.9383334 25.9070444 87.1450001 25.017L85.0710001 27.6871333C86.2270001 28.7879778 87.4453334 29.5609111 88.7260001 30.0059333 90.0066667 30.4509556 91.4176667 30.6734667 92.9590001 30.6734667zM93.4010001 21.5677333C91.7690001 21.5677333 90.4770001 21.0583 89.5250001 20.0394333 88.5730001 19.0205667 88.0970001 17.6679333 88.0970001 15.9815333 88.0970001 15.1383333 88.2216667 14.3595444 88.4710001 13.6451667 88.7203334 12.9307889 89.0716667 12.3218111 89.5250001 11.8182333 89.9783334 11.3146556 90.5336667 10.9164778 91.1910001 10.6237 91.8483334 10.3309222 92.5850001 10.1845333 93.4010001 10.1845333 94.2170001 10.1845333 94.9536667 10.3309222 95.6110001 10.6237 96.2683334 10.9164778 96.8236667 11.3146556 97.2770001 11.8182333 97.7303334 12.3218111 98.0816667 12.9307889 98.3310001 13.6451667 98.5803334 14.3595444 98.7050001 15.1383333 98.7050001 15.9815333 98.7050001 17.6679333 98.2290001 19.0205667 97.2770001 20.0394333 96.3250001 21.0583 95.0330001 21.5677333 93.4010001 21.5677333zM140.44 24.3081333L140.44 15.6653333C140.44 14.7284444 140.553333 13.9145222 140.78 13.2235667 141.006667 12.5326111 141.312667 11.9646222 141.698 11.5196 142.083333 11.0745778 142.531 10.7408111 143.041 10.5183 143.551 10.2957889 144.078 10.1845333 144.622 10.1845333 145.37 10.1845333 145.965 10.3192111 146.407 10.5885667 146.849 10.8579222 147.189 11.2326778 147.427 11.7128333 147.665 12.1929889 147.823667 12.7609778 147.903 13.4168 147.982333 14.0726222 148.022 14.7987111 148.022 15.5950667L148.022 24.3081333 151.082 24.3081333 151.082 15.2086C151.082 13.733 151.399333 12.5267556 152.034 11.5898667 152.668667 10.6529778 153.722667 10.1845333 155.196 10.1845333 155.944 10.1845333 156.544667 10.3192111 156.998 10.5885667 157.451333 10.8579222 157.802667 11.2151111 158.052 11.6601333 158.301333 12.1051556 158.465667 12.6204444 158.545 13.206 158.624333 13.7915556 158.664 14.4005333 158.664 15.0329333L158.664 24.3081333 161.724 24.3081333 161.724 14.6113333C161.724 13.6744444 161.639 12.7668333 161.469 11.8885 161.299 11.0101667 160.987333 10.2255222 160.534 9.53456667 160.080667 8.84361111 159.457333 8.28733333 158.664 7.86573333 157.870667 7.44413333 156.850667 7.23333333 155.604 7.23333333 154.629333 7.23333333 153.666 7.49097778 152.714 8.00626667 151.762 8.52155556 151.025333 9.29448889 150.504 10.3250667 149.982667 9.29448889 149.314 8.52155556 148.498 8.00626667 147.682 7.49097778 146.673333 7.23333333 145.472 7.23333333 144.746667 7.23333333 144.083667 7.34458889 143.483 7.5671 142.882333 7.78961111 142.361 8.05896667 141.919 8.37516667 141.477 8.69136667 141.114333 9.02513333 140.831 9.37646667 140.547667 9.7278 140.372 10.0205778 140.304 10.2548L140.236 10.2548 140.236 7.65493333 137.38 7.65493333 137.38 24.3081333 140.44 24.3081333zM109.704 24.3081333L109.704 15.9464C109.704 14.1194667 110.100667 12.7726889 110.894 11.9060667 111.687333 11.0394444 112.832 10.6061333 114.328 10.6061333 114.577333 10.6061333 114.826667 10.6295556 115.076 10.6764 115.325333 10.7232444 115.574667 10.7818 115.824 10.8520667L115.824 10.8520667 115.96 7.44413333C115.552 7.3036 115.098667 7.23333333 114.6 7.23333333 114.101333 7.23333333 113.602667 7.30945556 113.104 7.4617 112.605333 7.61394444 112.146333 7.81888889 111.727 8.07653333 111.307667 8.33417778 110.928 8.64452222 110.588 9.00756667 110.248 9.37061111 109.976 9.77464444 109.772 10.2196667L109.772 10.2196667 109.704 10.2196667 109.704 7.65493333 106.644 7.65493333 106.644 24.3081333 109.704 24.3081333z"/>
      <g transform="translate(114.34 7.657)">
        <polygon fill="#9D8B73" points="21.319 0 12.542 16.647 8.777 16.647 0 0 3.543 0 10.66 13.448 17.776 0" transform="matrix(1 0 0 -1 0 16.647)"/>
        <path fill="#594C3B" d="M10.6574026,9.90966667 L14.2232056,16.6466667 L7.09320562,16.6476667 L10.6574026,9.90966667 Z"/>
        <path fill="#6C5647" d="M10.6639856,8.34933333 L15.0577369,16.6503333 L6.26973687,16.6503333 L10.6639856,8.34933333 Z"/>
      </g>
    </g>
    <g transform="translate(45 12)">
      <path fill="#6C5647" d="M36.8944272,31.7888544 L48.2763932,54.5527864 C48.5233825,55.0467649 48.3231581,55.6474379 47.8291796,55.8944272 C47.6903242,55.9638549 47.5372111,56 47.381966,56 L24.618034,56 C24.0657492,56 23.618034,55.5522847 23.618034,55 C23.618034,54.8447549 23.6541791,54.6916418 23.7236068,54.5527864 L35.1055728,31.7888544 C35.3525621,31.2948759 35.9532351,31.0946515 36.4472136,31.3416408 C36.640741,31.4384045 36.7976635,31.595327 36.8944272,31.7888544 Z"/>
      <path fill="url(#group-a)" d="M36.4472136,31.3416408 C36.640741,31.4384045 36.7976635,31.595327 36.8944272,31.7888544 L48.2763932,54.5527864 C48.5233825,55.0467649 48.3231581,55.6474379 47.8291796,55.8944272 C47.6903242,55.9638549 47.5372111,56 47.381966,56 L36,56 L36.0002772,31.2358489 C36.1507285,31.2358489 36.3034872,31.2697776 36.4472136,31.3416408 Z"/>
      <path fill="#9D8B73" d="M44.5527864,1.10557281 L71.2763932,54.5527864 C71.5233825,55.0467649 71.3231581,55.6474379 70.8291796,55.8944272 C70.6903242,55.9638549 70.5372111,56 70.381966,56 L57.236068,56 C56.4785239,56 55.7859976,55.5719952 55.4472136,54.8944272 L36,16 L36,16 L16.5527864,54.8944272 C16.2140024,55.5719952 15.5214761,56 14.763932,56 L1.61803399,56 C1.06574924,56 0.618033989,55.5522847 0.618033989,55 C0.618033989,54.8447549 0.654179081,54.6916418 0.723606798,54.5527864 L27.4472136,1.10557281 C27.7859976,0.428004752 28.4785239,-3.42695613e-15 29.236068,0 L42.763932,0 C43.5214761,2.55217875e-15 44.2140024,0.428004752 44.5527864,1.10557281 Z"/>
      <path fill="url(#group-b)" d="M36.2273313,0.454662526 L44,16 L44,16 L36,32 L36,0.508328157 C36,0.442053987 36.0537258,0.388328157 36.12,0.388328157 C36.1654526,0.388328157 36.2070042,0.414008442 36.2273313,0.454662526 Z" transform="matrix(-1 0 0 1 80 0)"/>
    </g>
  </g>
</svg>
