<svg xmlns="http://www.w3.org/2000/svg" width="80" height="80" viewBox="0 0 80 80">
  <defs>
    <linearGradient id="grey-a" x1="69.195%" x2="51.367%" y1="-3.475%" y2="95.603%">
      <stop offset="0%" stop-opacity=".24"/>
      <stop offset="100%" stop-opacity="0"/>
    </linearGradient>
    <linearGradient id="grey-b" x1="54.799%" x2="50.342%" y1="-3.475%" y2="95.603%">
      <stop offset="0%" stop-opacity=".24"/>
      <stop offset="100%" stop-opacity="0"/>
    </linearGradient>
  </defs>
  <g fill="none" fill-rule="evenodd" transform="translate(4 14)">
    <path fill="#000" fill-opacity=".2" d="M36.8944272,31.7888544 L48.2763932,54.5527864 C48.5233825,55.0467649 48.3231581,55.6474379 47.8291796,55.8944272 C47.6903242,55.9638549 47.5372111,56 47.381966,56 L24.618034,56 C24.0657492,56 23.618034,55.5522847 23.618034,55 C23.618034,54.8447549 23.6541791,54.6916418 23.7236068,54.5527864 L35.1055728,31.7888544 C35.3525621,31.2948759 35.9532351,31.0946515 36.4472136,31.3416408 C36.640741,31.4384045 36.7976635,31.595327 36.8944272,31.7888544 Z"/>
    <path fill="url(#grey-a)" d="M36.4472136,31.3416408 C36.640741,31.4384045 36.7976635,31.595327 36.8944272,31.7888544 L48.2763932,54.5527864 C48.5233825,55.0467649 48.3231581,55.6474379 47.8291796,55.8944272 C47.6903242,55.9638549 47.5372111,56 47.381966,56 L36,55.9998489 L36.0002772,31.235849 C36.1507285,31.2357736 36.3034872,31.2697776 36.4472136,31.3416408 Z"/>
    <path fill="#000" fill-opacity=".2" d="M44.5527864,1.10557281 L71.2763932,54.5527864 C71.5233825,55.0467649 71.3231581,55.6474379 70.8291796,55.8944272 C70.6903242,55.9638549 70.5372111,56 70.381966,56 L57.236068,56 C56.4785239,56 55.7859976,55.5719952 55.4472136,54.8944272 L36,16 L36,16 L16.5527864,54.8944272 C16.2140024,55.5719952 15.5214761,56 14.763932,56 L1.61803399,56 C1.06574924,56 0.618033989,55.5522847 0.618033989,55 C0.618033989,54.8447549 0.654179081,54.6916418 0.723606798,54.5527864 L27.4472136,1.10557281 C27.7859976,0.428004752 28.4785239,-3.42695613e-15 29.236068,0 L42.763932,0 C43.5214761,2.55217875e-15 44.2140024,0.428004752 44.5527864,1.10557281 Z"/>
    <path fill="url(#grey-b)" d="M36.2273313,0.454662526 L44,16 L44,16 L36,32 L36,0.508328157 C36,0.442053987 36.0537258,0.388328157 36.12,0.388328157 C36.1654526,0.388328157 36.2070042,0.414008442 36.2273313,0.454662526 Z" transform="matrix(-1 0 0 1 80 0)"/>
  </g>
</svg>
